<svg xmlns="http://www.w3.org/2000/svg" xmlns:xlink="http://www.w3.org/1999/xlink" version="1.1" width="256" height="256" viewBox="0 0 256 256" xml:space="preserve">

<defs>
</defs>
<g style="stroke: none; stroke-width: 0; stroke-dasharray: none; stroke-linecap: butt; stroke-linejoin: miter; stroke-miterlimit: 10; fill: none; fill-rule: nonzero; opacity: 1;" transform="translate(1.4065934065934016 1.4065934065934016) scale(2.81 2.81)" >
	<path d="M 77.612 90 H 12.388 c -0.829 0 -1.5 -0.672 -1.5 -1.5 V 36.637 H 1.5 c -0.642 0 -1.212 -0.408 -1.419 -1.015 c -0.208 -0.607 -0.006 -1.279 0.502 -1.671 l 43.5 -33.637 c 0.54 -0.418 1.295 -0.418 1.835 0 l 43.5 33.637 c 0.507 0.393 0.709 1.064 0.502 1.671 c -0.208 0.607 -0.778 1.015 -1.42 1.015 h -9.388 V 88.5 C 79.112 89.328 78.44 90 77.612 90 z M 13.888 87 h 62.225 V 35.137 c 0 -0.829 0.672 -1.5 1.5 -1.5 h 6.496 L 45 3.396 L 5.892 33.637 h 6.496 c 0.829 0 1.5 0.671 1.5 1.5 V 87 z" style="stroke: none; stroke-width: 1; stroke-dasharray: none; stroke-linecap: butt; stroke-linejoin: miter; stroke-miterlimit: 10; fill: rgb(0,0,0); fill-rule: nonzero; opacity: 1;" transform=" matrix(1 0 0 1 0 0) " stroke-linecap="round" />
	<path d="M 45 81.51 L 30.514 64.449 C 27.603 61.019 26 56.657 26 52.169 c 0 -10.477 8.523 -19 19 -19 s 19 8.523 19 19 c 0 4.489 -1.603 8.851 -4.514 12.28 L 45 81.51 z M 45 36.169 c -8.822 0 -16 7.177 -16 16 c 0 3.778 1.35 7.45 3.801 10.339 L 45 76.875 l 12.199 -14.367 C 59.65 59.619 61 55.948 61 52.169 C 61 43.347 53.822 36.169 45 36.169 z M 45 60.264 c -4.795 0 -8.697 -3.901 -8.697 -8.696 c 0 -4.796 3.901 -8.697 8.697 -8.697 c 4.796 0 8.697 3.901 8.697 8.697 C 53.697 56.362 49.796 60.264 45 60.264 z M 45 45.87 c -3.141 0 -5.697 2.556 -5.697 5.697 c 0 3.141 2.556 5.696 5.697 5.696 c 3.142 0 5.697 -2.556 5.697 -5.696 C 50.697 48.426 48.142 45.87 45 45.87 z" style="stroke: none; stroke-width: 1; stroke-dasharray: none; stroke-linecap: butt; stroke-linejoin: miter; stroke-miterlimit: 10; fill: rgb(0,0,0); fill-rule: nonzero; opacity: 1;" transform=" matrix(1 0 0 1 0 0) " stroke-linecap="round" />
</g>
</svg>